<svg xmlns="http://www.w3.org/2000/svg" viewBox="0 0 201.43 120.86"><g data-name="Слой 2"><path d="M163.41 20.11l-15-15A17.69 17.69 0 00136 0H64.58a17.79 17.79 0 00-12.46 5.13l-15 15H0v80.48h20.14a10 10 0 0010-10h2.87l26.62 24a27.71 27.71 0 0033.24 1.2 19.33 19.33 0 0028.3-2.55 17.68 17.68 0 0020.18-5.26l8.25-10.17a17.33 17.33 0 003.4-7.22h18.22a10.05 10.05 0 0010 10h20.14v-80.5zM15.11 90.52a5 5 0 115-5 5.06 5.06 0 01-5 5zm122.75-2.17l-8.22 10.13a2.54 2.54 0 01-3.56.38l-7.52-6.11-9.44 11.49a4.22 4.22 0 01-5.67.76l-11.58-9.92-4.91 6a12.53 12.53 0 01-17.4 2.07L38.93 75.51h-8.72V35.19H43.4L62.82 15.8l1.8-.72h17.84L70.28 26.25a22.52 22.52 0 00-1.38 31.88c4.65 5.1 19.26 13 31.94 1.39l2.58-2.36 34.06 27.63a2.58 2.58 0 01.38 3.56zm33.36-12.84h-21.78a17.44 17.44 0 00-2.44-2.43l-32.31-26.25 3.93-3.58a5 5 0 00.32-7.12l-3.43-3.68a5.06 5.06 0 00-7.11-.32L91 48.06c-3 2.74-8.09 3-10.89 0a7.48 7.48 0 01.38-10.67l20.65-18.91a12.48 12.48 0 018.49-3.31l26.37-.06a2.35 2.35 0 011.73.72l19.42 19.39h14.07zm15.11 15a5 5 0 115-5 5.06 5.06 0 01-5 5.01z" data-name="Слой 12"/></g></svg>